<?xml version="1.0" standalone="no"?>
<!DOCTYPE svg PUBLIC "-//W3C//DTD SVG 20010904//EN"
 "http://www.w3.org/TR/2001/REC-SVG-20010904/DTD/svg10.dtd">
<svg version="1.0" xmlns="http://www.w3.org/2000/svg"
 width="400.000000pt" height="400.000000pt" viewBox="0 0 400.000000 400.000000"
 preserveAspectRatio="xMidYMid meet">

<g transform="translate(0.000000,400.000000) scale(0.100000,-0.100000)"
fill="#000000" stroke="none">
<path d="M1871 3574 c-67 -34 -133 -107 -161 -180 -31 -78 -34 -241 -6 -324
42 -124 96 -195 176 -229 28 -12 50 -27 50 -34 0 -20 -52 -96 -110 -162 -144
-163 -204 -333 -150 -423 25 -41 73 -62 140 -62 69 0 90 22 90 95 0 46 -4 57
-23 69 -12 9 -32 13 -45 9 -25 -6 -27 -14 -11 -30 6 -6 8 -21 4 -33 -6 -19
-12 -21 -39 -16 -64 12 -84 80 -47 162 11 23 46 82 79 130 68 102 106 175 116
221 7 31 10 28 112 -124 99 -148 140 -235 128 -268 -4 -10 -22 0 -66 35 -91
73 -148 75 -195 4 -13 -20 -12 -20 34 -11 124 25 188 -81 134 -223 l-19 -50
45 0 c173 0 229 209 106 400 -20 30 -94 112 -165 183 -119 117 -133 134 -173
220 -84 178 -104 328 -53 418 27 48 62 69 116 69 69 0 120 -74 137 -200 12
-88 -34 -242 -105 -347 l-30 -45 29 21 c88 63 179 203 202 311 16 76 7 194
-20 255 -26 60 -81 119 -136 147 -72 37 -90 39 -144 12z"/>
<path d="M2420 3307 c-155 -114 -248 -251 -236 -345 6 -48 7 -67 4 -139 -1
-45 32 -102 74 -124 19 -10 20 -9 14 12 -19 69 -18 114 7 161 21 41 23 53 14
85 -8 32 -6 47 13 91 23 54 112 146 134 139 36 -12 76 -129 61 -177 -10 -30
10 -24 40 12 25 30 27 37 23 103 -4 55 -13 86 -41 142 -20 39 -40 74 -44 76
-5 3 -33 -14 -63 -36z"/>
<path d="M1339 3244 c-20 -53 -40 -188 -33 -234 7 -48 45 -124 66 -133 11 -4
11 9 4 64 -22 155 41 202 147 110 40 -35 72 -104 82 -176 3 -27 15 -69 27 -92
15 -33 19 -58 16 -113 l-3 -71 22 27 c35 44 49 109 34 158 -7 23 -17 70 -22
105 -19 137 -104 239 -301 366 -28 17 -28 17 -39 -11z"/>
<path d="M2580 2988 c-39 -15 -74 -40 -121 -87 -123 -124 -167 -264 -155 -506
9 -190 20 -228 29 -95 8 121 23 191 74 345 60 183 106 258 149 241 24 -9 17
-122 -15 -249 -32 -124 -85 -263 -161 -424 l-49 -104 41 23 c87 49 177 180
229 332 34 99 67 294 76 439 l6 107 -24 -1 c-13 0 -49 -10 -79 -21z"/>
<path d="M1130 2883 c0 -23 42 -178 66 -243 91 -255 270 -482 412 -525 15 -4
-5 21 -58 72 -94 89 -140 160 -140 216 0 31 5 40 26 49 22 10 28 10 39 -5 12
-17 14 -16 33 10 11 15 23 38 26 50 10 32 -31 46 -113 40 l-63 -5 -18 42 c-39
92 -29 142 24 118 32 -14 162 -137 198 -186 40 -56 35 -37 -13 42 -92 151
-185 247 -284 293 -63 28 -135 46 -135 32z"/>
<path d="M2842 2777 c-37 -12 -111 -73 -144 -120 l-23 -32 30 23 c62 47 75 54
91 48 20 -8 14 -46 -23 -156 -63 -187 -145 -315 -220 -347 -26 -10 -33 -19
-33 -42 0 -40 37 -90 98 -133 l53 -37 -27 -18 c-45 -29 -155 -25 -222 8 -28
14 -52 23 -52 19 0 -4 21 -28 46 -53 112 -114 263 -96 374 45 l43 53 -64 8
c-101 13 -219 78 -219 121 0 6 21 19 46 30 62 25 151 110 197 187 21 35 56
122 78 192 22 71 49 148 59 173 l19 44 -37 -1 c-20 -1 -52 -6 -70 -12z"/>
<path d="M991 2538 c27 -51 49 -100 49 -109 0 -8 20 -57 45 -108 71 -145 179
-235 301 -249 24 -2 44 -8 44 -12 0 -18 -124 -123 -170 -144 l-51 -24 32 -36
c18 -21 45 -44 60 -52 36 -18 100 -18 146 1 20 9 44 13 53 10 50 -16 144 110
138 186 l-3 43 -29 -43 c-37 -53 -100 -91 -152 -91 -66 0 -70 10 -30 76 20 32
36 66 35 74 0 8 -27 28 -62 44 -84 40 -211 167 -255 256 -56 112 -44 152 34
115 20 -9 38 -15 40 -12 3 2 -22 29 -55 59 -65 60 -150 108 -191 108 l-27 0
48 -92z"/>
<path d="M1752 2054 c-92 -107 -121 -222 -76 -305 10 -20 73 -93 140 -163
l120 -126 50 46 c27 26 82 69 123 97 161 109 221 207 191 316 -17 65 -65 112
-121 118 -63 7 -116 -17 -134 -61 -21 -49 -19 -92 5 -116 30 -30 51 -26 44 8
-11 54 53 84 91 42 41 -46 0 -123 -140 -260 l-87 -85 -93 99 c-63 65 -100 114
-111 144 -17 43 -17 46 2 81 21 39 26 40 98 15 34 -12 56 -14 74 -8 40 14 36
27 -13 48 -50 20 -88 62 -108 121 l-13 38 -42 -49z"/>
<path d="M2074 1396 c-9 -24 4 -48 23 -44 24 4 24 52 0 56 -9 2 -20 -4 -23
-12z"/>
<path d="M2404 1395 c-8 -21 2 -45 19 -45 8 0 20 7 27 15 10 12 10 18 0 30 -7
8 -19 15 -27 15 -7 0 -16 -7 -19 -15z"/>
<path d="M2754 1396 c-10 -26 4 -48 28 -44 17 2 23 10 23 28 0 18 -6 26 -23
28 -13 2 -25 -3 -28 -12z"/>
<path d="M2553 1315 c-37 -16 -53 -42 -53 -87 0 -28 11 -43 82 -109 70 -66 81
-81 81 -109 0 -70 -79 -93 -132 -39 -23 22 -35 28 -47 21 -14 -8 -11 -14 20
-46 20 -20 46 -36 56 -36 15 0 20 -7 20 -25 0 -16 6 -25 15 -25 8 0 15 -7 15
-15 0 -10 -11 -15 -35 -15 -19 0 -35 -4 -35 -10 0 -13 56 -13 81 0 25 14 25
50 -1 57 -30 8 -25 19 18 40 44 21 73 74 65 116 -6 31 -41 70 -116 130 -36 29
-47 44 -47 67 0 60 57 79 105 35 21 -21 30 -23 41 -14 12 10 12 15 -3 32 -17
18 -73 47 -90 47 -4 -1 -22 -7 -40 -15z"/>
<path d="M801 1259 c-16 -35 -58 -126 -95 -203 -36 -76 -66 -140 -66 -142 0
-2 9 -4 21 -4 17 0 35 30 97 161 l78 161 69 -148 c74 -161 85 -178 108 -172
12 2 -4 44 -75 198 -50 107 -94 199 -99 204 -5 5 -21 -18 -38 -55z"/>
<path d="M1040 1115 c0 -198 1 -205 20 -205 19 0 20 7 20 95 0 70 3 95 13 94
6 0 44 -42 82 -92 45 -59 79 -93 93 -95 12 -2 22 0 22 3 0 4 -30 45 -66 92
-36 47 -64 86 -62 87 2 1 22 8 45 14 52 15 83 53 83 101 0 76 -55 111 -175
111 l-75 0 0 -205z m185 140 c14 -13 25 -33 25 -45 0 -11 -11 -32 -25 -45 -20
-21 -34 -25 -85 -25 l-60 0 0 70 0 70 60 0 c51 0 65 -4 85 -25z"/>
<path d="M1320 1116 l0 -206 83 0 c96 0 174 20 205 52 71 76 70 218 -2 296
-38 42 -75 54 -183 60 l-103 5 0 -207z m222 137 c50 -29 71 -66 75 -130 8
-113 -45 -163 -178 -171 l-79 -5 0 168 0 168 75 -6 c46 -3 88 -13 107 -24z"/>
<path d="M1790 1114 l0 -207 80 6 c93 6 125 22 146 74 20 47 10 88 -31 120
l-33 27 19 24 c24 31 25 93 2 121 -20 24 -76 40 -140 41 l-43 0 0 -206z m149
140 c27 -34 26 -50 -4 -79 -18 -19 -35 -25 -70 -25 l-45 0 0 65 0 65 49 0 c42
0 53 -4 70 -26z m28 -178 c54 -64 7 -126 -96 -126 l-51 0 0 81 0 81 62 -4 c51
-4 65 -9 85 -32z"/>
<path d="M2080 1115 c0 -176 2 -205 15 -205 13 0 15 29 15 205 0 176 -2 205
-15 205 -13 0 -15 -29 -15 -205z"/>
<path d="M2182 1118 l3 -203 93 -3 c87 -3 92 -2 92 18 0 18 -6 20 -75 20 l-75
0 0 185 c0 179 -1 185 -20 185 -20 0 -20 -5 -18 -202z"/>
<path d="M2410 1115 c0 -191 1 -206 18 -203 15 3 17 21 17 203 0 182 -2 200
-17 203 -17 3 -18 -12 -18 -203z"/>
<path d="M2760 1115 c0 -198 1 -205 20 -205 19 0 20 7 20 205 0 198 -1 205
-20 205 -19 0 -20 -7 -20 -205z"/>
<path d="M2881 1143 c-13 -93 -26 -183 -28 -200 -4 -26 -2 -33 11 -33 19 0 21
8 41 165 9 66 18 121 20 123 2 2 37 -62 77 -142 l73 -146 70 141 c39 77 73
143 76 145 4 2 15 -60 25 -137 12 -96 22 -143 31 -146 8 -3 16 -3 18 -1 5 5
-42 360 -51 386 -2 8 -40 -59 -84 -147 -44 -89 -82 -161 -85 -161 -3 0 -41 72
-85 160 -44 88 -81 160 -83 160 -2 0 -13 -75 -26 -167z"/>
</g>
</svg>
